<?xml version="1.0" encoding="UTF-8"?>
<svg xmlns="http://www.w3.org/2000/svg" width="220" height="38" viewBox="0 0 220 38" fill="none">
  <path d="M5.35882 3.00577H2.08269V0.205078H0V7.81616H2.08269V4.76353H5.35882V7.81616H7.43565V0.205078H5.35882V3.00577Z" fill="#FCFCFC"></path>
  <path d="M10.4244 3.1205C10.5999 2.09514 11.1674 1.55609 12.0858 1.55609C13.0043 1.55609 13.6479 2.18889 13.6771 3.1205H10.4244ZM12.0976 0.00927734C9.81011 0.00927734 8.27734 1.59126 8.27734 3.96422C8.27734 6.33719 9.79256 8.00119 12.1619 8.00119C14.0515 8.00119 15.3561 7.13402 15.8417 5.48759H13.5952C13.3905 6.09109 12.9166 6.38991 12.2029 6.38991C11.1323 6.38991 10.4887 5.75126 10.4302 4.64974H15.8359C15.8359 4.38021 15.8534 4.28647 15.8534 4.16343C15.8534 1.60297 14.4025 0.0209893 12.0917 0.0209893" fill="#FCFCFC"></path>
  <path d="M19.3885 0.142157C18.6514 0.288636 16.7676 0.856984 16.7676 3.7397V7.82354H18.8678V4.44865C18.8678 3.20065 19.0433 2.61474 19.5581 2.23975C19.8741 1.98781 20.3362 1.84131 20.8686 1.84131C21.0909 1.84131 21.1845 1.8589 21.4361 1.90577V0.17731C21.4361 0.17731 20.5936 -0.0922101 19.3826 0.142157" fill="#FCFCFC"></path>
  <path d="M25.6014 6.40749C24.4957 6.40749 23.8463 5.50517 23.8463 4.00522C23.8463 2.50527 24.4781 1.60297 25.6014 1.60297C26.7246 1.60297 27.3389 2.47598 27.3389 3.99351C27.3389 5.51104 26.7071 6.41335 25.6014 6.41335M25.6014 0.00927734C23.2437 0.00927734 21.7285 1.57367 21.7285 4.01109C21.7285 6.44851 23.2437 8.00119 25.6014 8.00119C27.959 8.00119 29.4567 6.43093 29.4567 4.01109C29.4567 1.59125 27.9356 0.00927734 25.6014 0.00927734Z" fill="#FCFCFC"></path>
  <path d="M29.4593 13.3653C29.4886 14.8711 28.2249 16.1015 26.7215 16.1015H21.743C21.5675 16.1015 21.4271 16.2421 21.4271 16.4179V34.8099C21.4271 36.304 20.2103 37.5696 18.7185 37.552C17.8527 37.5403 17.0805 37.1184 16.6008 36.468L0.548067 15.0293C0.156109 14.5078 -0.048644 13.834 0.0274074 13.1133C0.16196 11.8595 1.18573 10.8575 2.43765 10.7462C3.42047 10.6583 4.30384 11.0978 4.8362 11.8185L15.8871 26.5719C15.9456 26.6539 16.0743 26.607 16.0743 26.5074V13.4122C16.0743 11.9298 17.2735 10.7286 18.7536 10.7286H26.7858C28.2483 10.7286 29.4359 11.9005 29.4652 13.3594L29.4593 13.3653ZM34.8122 10.7345C33.3321 10.7345 32.1328 11.9356 32.1328 13.418V34.8685C32.1328 36.3508 33.3321 37.552 34.8122 37.552C36.2922 37.552 37.4915 36.3508 37.4915 34.8685V13.418C37.4915 11.9356 36.2922 10.7345 34.8122 10.7345ZM56.2294 16.0957C57.6919 16.0957 58.8795 14.9238 58.9087 13.4649C58.938 12.006 57.6744 10.7286 56.1709 10.7286H45.5237C44.0436 10.7286 42.8444 11.9298 42.8444 13.4122V34.804C42.8444 36.3098 44.0729 37.5754 45.5764 37.5461C47.0798 37.5168 48.2031 36.3274 48.2031 34.8626V16.4062C48.2031 16.2304 48.3435 16.0898 48.519 16.0898H56.2353L56.2294 16.0957ZM99.0697 13.4122V34.8626C99.0697 36.0637 98.28 37.0832 97.186 37.4231C96.9345 37.4992 96.6654 37.5461 96.3904 37.5461H64.2616C63.659 37.5461 63.1091 37.3469 62.6587 37.0129C62.6236 36.9895 62.5885 36.9602 62.5592 36.9309C62.4949 36.8782 62.4305 36.8195 62.3662 36.7551C62.3369 36.7258 62.3077 36.6965 62.2784 36.6614C62.1029 36.468 61.9625 36.2571 61.8455 36.0227C61.6759 35.6712 61.5823 35.2786 61.5823 34.8626V27.1343C61.5823 26.9586 61.4419 26.818 61.2663 26.818H58.9029C57.4404 26.818 56.2528 25.6461 56.2236 24.1872C56.1943 22.7282 57.4579 21.451 58.9614 21.451H61.2663C61.4419 21.451 61.5823 21.3103 61.5823 21.1346V13.4063C61.5823 11.9239 62.7815 10.7228 64.2616 10.7228H74.9732C76.4532 10.7228 77.6525 11.9239 77.6525 13.4063V24.1344C77.6525 25.6168 76.4532 26.818 74.9732 26.818H67.2569C67.0814 26.818 66.941 26.9586 66.941 27.1343V31.8686C66.941 32.0443 67.0814 32.1849 67.2569 32.1849H82.6894C82.8649 32.1849 83.0054 32.0443 83.0054 31.8686V13.4122C83.0054 11.9298 84.2046 10.7286 85.6847 10.7286H93.401C93.5765 10.7286 93.7169 10.588 93.7169 10.4123V2.74259C93.7169 1.23678 94.9454 -0.0287972 96.4489 0.000498641C97.9524 0.0297945 99.0756 1.21922 99.0756 2.68401V13.4122H99.0697ZM66.941 16.4062V21.1404C66.941 21.3162 67.0814 21.4568 67.2569 21.4568H71.9837C72.1592 21.4568 72.2997 21.3162 72.2997 21.1404V16.4062C72.2997 16.2304 72.1592 16.0898 71.9837 16.0898H67.2569C67.0814 16.0898 66.941 16.2304 66.941 16.4062ZM88.3582 16.4062V31.8627C88.3582 32.0385 88.4986 32.1791 88.6741 32.1791H93.401C93.5765 32.1791 93.7169 32.0385 93.7169 31.8627V16.4062C93.7169 16.2304 93.5765 16.0898 93.401 16.0898H88.6741C88.4986 16.0898 88.3582 16.2304 88.3582 16.4062Z" fill="#FCFCFC"></path>
  <path d="M106.906 10.7449L105.736 10.7466L105.774 37.5348L106.944 37.5331L106.906 10.7449Z" fill="#FCFCFC"></path>
  <path d="M120.185 19.3781H116.107L115.136 22.173H113.639L117.547 11.3159H118.804L122.63 22.173H121.133L120.179 19.3781H120.185ZM116.529 18.1477H119.77L118.19 13.4838H118.143L116.529 18.1477Z" fill="#FCFCFC"></path>
  <path d="M136.518 22.1842H134.341V17.6727H129.924V22.1842H127.748V11.3271H129.924V15.9969H134.341V11.3271H136.518V22.1842Z" fill="#FCFCFC"></path>
  <path d="M144.709 17.4036H140.69V20.5031H145.47V22.173H138.514V11.3159H145.452V12.9916H140.684V15.722H144.703V17.3978L144.709 17.4036Z" fill="#FCFCFC"></path>
  <path d="M149.172 17.8426V22.1842H146.996V11.3271H150.752C151.986 11.3271 152.957 11.6084 153.654 12.1709C154.35 12.7334 154.701 13.5243 154.701 14.5321C154.701 15.0887 154.555 15.5692 154.256 15.9735C153.958 16.3778 153.531 16.7059 152.963 16.952C153.601 17.1395 154.063 17.4559 154.344 17.9012C154.625 18.3464 154.765 18.8914 154.765 19.5417V20.3386C154.765 20.6433 154.806 20.9596 154.888 21.2878C154.97 21.6159 155.11 21.862 155.309 22.0202V22.1784H153.069C152.87 22.0202 152.741 21.7565 152.683 21.3874C152.624 21.0182 152.595 20.6667 152.595 20.321V19.5534C152.595 19.0144 152.449 18.5925 152.15 18.2879C151.858 17.989 151.436 17.8367 150.898 17.8367H149.172V17.8426ZM149.172 16.1668H150.711C151.319 16.1668 151.776 16.0379 152.074 15.7801C152.372 15.5223 152.519 15.1415 152.519 14.6317C152.519 14.122 152.367 13.7411 152.068 13.4482C151.77 13.1552 151.325 13.0087 150.746 13.0087H149.167V16.1727L149.172 16.1668Z" fill="#FCFCFC"></path>
  <path d="M165.482 17.7307C165.482 19.0666 165.061 20.1682 164.224 21.0412C163.388 21.9083 162.294 22.3419 160.948 22.3419C159.602 22.3419 158.52 21.9083 157.684 21.0353C156.847 20.1623 156.432 19.0666 156.432 17.7307V15.7796C156.432 14.4496 156.847 13.3539 157.678 12.4809C158.508 11.6079 159.591 11.1743 160.93 11.1743C162.27 11.1743 163.37 11.6079 164.212 12.4809C165.055 13.3539 165.476 14.4554 165.476 15.7796V17.7307H165.482ZM163.317 15.762C163.317 14.9183 163.107 14.2211 162.686 13.682C162.264 13.143 161.679 12.8676 160.936 12.8676C160.193 12.8676 159.632 13.1371 159.216 13.682C158.807 14.2269 158.602 14.9183 158.602 15.762V17.7307C158.602 18.592 158.807 19.2893 159.222 19.8342C159.632 20.3732 160.211 20.6486 160.948 20.6486C161.685 20.6486 162.276 20.3791 162.691 19.8342C163.107 19.2951 163.317 18.592 163.317 17.7307V15.762Z" fill="#FCFCFC"></path>
  <path d="M179.311 20.6945C178.972 21.1398 178.468 21.5207 177.801 21.8488C177.135 22.1769 176.269 22.3351 175.21 22.3351C173.899 22.3351 172.829 21.9249 171.992 21.0988C171.156 20.2727 170.74 19.2004 170.74 17.8821V15.6146C170.74 14.3021 171.144 13.2299 171.957 12.4038C172.764 11.5776 173.806 11.1616 175.075 11.1616C176.345 11.1616 177.415 11.478 178.123 12.105C178.825 12.7319 179.17 13.5756 179.141 14.6244L179.124 14.6713H177.076C177.076 14.0971 176.912 13.6459 176.579 13.3237C176.245 13.0014 175.76 12.8432 175.128 12.8432C174.496 12.8432 173.929 13.101 173.519 13.6166C173.11 14.1322 172.911 14.7943 172.911 15.6029V17.8821C172.911 18.7024 173.121 19.3703 173.537 19.8859C173.952 20.4016 174.514 20.6594 175.21 20.6594C175.725 20.6594 176.134 20.6066 176.433 20.5012C176.731 20.3957 176.965 20.2668 177.129 20.1086V18.0052H175.046V16.4993H179.311V20.6887V20.6945Z" fill="#FCFCFC"></path>
  <path d="M183.331 17.8426V22.1842H181.154V11.3271H184.904C186.139 11.3271 187.11 11.6084 187.806 12.1709C188.502 12.7334 188.853 13.5243 188.853 14.5321C188.853 15.0887 188.707 15.5692 188.409 15.9735C188.116 16.3778 187.683 16.7059 187.116 16.952C187.753 17.1395 188.216 17.4559 188.496 17.9012C188.777 18.3464 188.918 18.8914 188.918 19.5417V20.3386C188.918 20.6433 188.959 20.9596 189.04 21.2878C189.122 21.6159 189.263 21.862 189.462 22.0202V22.1784H187.221C187.022 22.0202 186.893 21.7565 186.835 21.3874C186.776 21.0182 186.747 20.6667 186.747 20.321V19.5534C186.747 19.0144 186.601 18.5925 186.303 18.2879C186.01 17.989 185.589 17.8367 185.051 17.8367H183.325L183.331 17.8426ZM183.331 16.1668H184.869C185.478 16.1668 185.934 16.0379 186.232 15.7801C186.531 15.5223 186.677 15.1415 186.677 14.6317C186.677 14.122 186.525 13.7411 186.226 13.4482C185.928 13.1552 185.483 13.0087 184.904 13.0087H183.325V16.1727L183.331 16.1668Z" fill="#FCFCFC"></path>
  <path d="M199.648 17.7307C199.648 19.0666 199.227 20.1682 198.39 21.0412C197.554 21.9083 196.46 22.3419 195.114 22.3419C193.768 22.3419 192.686 21.9083 191.85 21.0353C191.013 20.1623 190.598 19.0666 190.598 17.7307V15.7796C190.598 14.4496 191.013 13.3539 191.844 12.4809C192.674 11.6079 193.757 11.1743 195.096 11.1743C196.436 11.1743 197.536 11.6079 198.378 12.4809C199.221 13.3539 199.642 14.4554 199.642 15.7796V17.7307H199.648ZM197.483 15.762C197.483 14.9183 197.273 14.2211 196.852 13.682C196.43 13.143 195.845 12.8676 195.102 12.8676C194.359 12.8676 193.798 13.1371 193.388 13.682C192.979 14.2269 192.774 14.9183 192.774 15.762V17.7307C192.774 18.592 192.979 19.2893 193.394 19.8342C193.809 20.3791 194.383 20.6486 195.12 20.6486C195.857 20.6486 196.448 20.3791 196.863 19.8342C197.279 19.2951 197.489 18.592 197.489 17.7307V15.762H197.483Z" fill="#FCFCFC"></path>
  <path d="M209.961 11.3159V18.4231C209.961 19.6477 209.557 20.6027 208.75 21.2941C207.943 21.9855 206.89 22.3312 205.603 22.3312C204.316 22.3312 203.274 21.9855 202.473 21.2941C201.671 20.6027 201.268 19.6477 201.268 18.4231V11.3159H203.45V18.4231C203.45 19.1497 203.643 19.7063 204.029 20.0871C204.415 20.468 204.942 20.6613 205.603 20.6613C206.264 20.6613 206.802 20.468 207.194 20.0871C207.586 19.7063 207.779 19.1497 207.779 18.4231V11.3159H209.961Z" fill="#FCFCFC"></path>
  <path d="M214.016 18.2468V22.1842H211.84V11.3271H215.988C217.234 11.3271 218.217 11.6435 218.93 12.2822C219.644 12.9208 220.001 13.7587 220.001 14.7958C220.001 15.8329 219.644 16.6707 218.93 17.3035C218.217 17.9363 217.234 18.2527 215.988 18.2527H214.016V18.2468ZM214.016 16.5711H215.988C216.596 16.5711 217.052 16.4071 217.362 16.0731C217.678 15.745 217.83 15.3231 217.83 14.8075C217.83 14.2919 217.673 13.8525 217.362 13.5126C217.052 13.1728 216.59 13.0029 215.982 13.0029H214.01V16.5653L214.016 16.5711Z" fill="#FCFCFC"></path>
  <path d="M122.321 34.3611L122.339 34.4079C122.356 35.4274 122 36.277 121.268 36.9684C120.537 37.6598 119.56 37.9996 118.355 37.9996C117.15 37.9996 116.132 37.566 115.36 36.693C114.587 35.82 114.201 34.7185 114.201 33.3826V31.4491C114.201 30.1132 114.587 29.0058 115.36 28.1328C116.132 27.2597 117.132 26.8262 118.355 26.8262C119.578 26.8262 120.555 27.1543 121.28 27.8046C122.005 28.455 122.356 29.3222 122.339 30.4061L122.321 30.453H120.911C120.911 29.6913 120.689 29.0937 120.239 28.6484C119.794 28.2089 119.162 27.9863 118.349 27.9863C117.536 27.9863 116.875 28.3144 116.389 28.9765C115.904 29.6386 115.658 30.4589 115.658 31.4373V33.3826C115.658 34.3728 115.904 35.1989 116.389 35.861C116.875 36.5231 117.53 36.8512 118.349 36.8512C119.168 36.8512 119.794 36.6286 120.239 36.1891C120.683 35.7497 120.911 35.1403 120.911 34.3669H122.321V34.3611Z" fill="#FCFCFC"></path>
  <path d="M132.524 33.3826C132.524 34.7126 132.114 35.8141 131.289 36.6872C130.47 37.5602 129.399 37.9996 128.089 37.9996C126.779 37.9996 125.796 37.5602 125 36.6872C124.21 35.8141 123.812 34.7126 123.812 33.3826V31.4491C123.812 30.1249 124.21 29.0234 125 28.1445C125.79 27.2656 126.82 26.8262 128.089 26.8262C129.359 26.8262 130.464 27.2656 131.289 28.1445C132.114 29.0234 132.524 30.1249 132.524 31.4491V33.3826ZM131.055 31.4373C131.055 30.4413 130.786 29.6269 130.254 28.9941C129.715 28.3554 128.996 28.039 128.095 28.039C127.241 28.039 126.562 28.3554 126.053 28.9941C125.544 29.6327 125.293 30.4471 125.293 31.4373V33.3826C125.293 34.3845 125.544 35.2048 126.053 35.8434C126.562 36.4821 127.241 36.7985 128.095 36.7985C129.002 36.7985 129.727 36.4821 130.259 35.8493C130.792 35.2165 131.061 34.3962 131.061 33.3826V31.4373H131.055Z" fill="#FCFCFC"></path>
  <path d="M140.011 35.8019H140.058L143.521 26.978H145.347V37.8351H143.878V29.6967H143.831L140.549 37.8351H139.531L136.15 29.4213H136.103V37.8351H134.635V26.978H136.565L140.011 35.8019Z" fill="#FCFCFC"></path>
  <path d="M149.347 33.4817V37.8351H147.879V26.978H152.027C153.185 26.978 154.086 27.2768 154.724 27.8745C155.367 28.4721 155.689 29.2572 155.689 30.2299C155.689 31.2025 155.367 32.0052 154.724 32.597C154.08 33.1888 153.179 33.4817 152.027 33.4817H149.347ZM149.347 32.3333H152.027C152.764 32.3333 153.308 32.1341 153.671 31.7415C154.033 31.349 154.215 30.8451 154.215 30.2474C154.215 29.6498 154.033 29.1459 153.665 28.7416C153.296 28.3373 152.752 28.1381 152.021 28.1381H149.341V32.3392L149.347 32.3333Z" fill="#FCFCFC"></path>
  <path d="M162.148 35.0402H158.07L157.099 37.8351H155.602L159.51 26.978H160.767L164.593 37.8351H163.096L162.142 35.0402H162.148ZM158.492 33.8098H161.733L160.153 29.1459H160.106L158.492 33.8098Z" fill="#FCFCFC"></path>
  <path d="M174.393 37.8385H172.925L167.707 29.5478L167.66 29.5653V37.8444H166.191V26.9873H167.66L172.878 35.2722L172.925 35.2546V26.9814H174.393V37.8385Z" fill="#FCFCFC"></path>
  <path d="M180.261 32.4974L183.092 26.978H184.765L180.963 34.0208V37.841H179.5V33.9094L175.756 26.9839H177.429L180.261 32.5032V32.4974Z" fill="#FCFCFC"></path>
</svg>
